<?xml version="1.0" encoding="utf-8"?>
<!-- Generator: Adobe Illustrator 16.0.4, SVG Export Plug-In . SVG Version: 6.00 Build 0)  -->
<!DOCTYPE svg PUBLIC "-//W3C//DTD SVG 1.1//EN" "http://www.w3.org/Graphics/SVG/1.1/DTD/svg11.dtd">
<svg version="1.1" id="Layer_1" xmlns="http://www.w3.org/2000/svg" xmlns:xlink="http://www.w3.org/1999/xlink" x="0px" y="0px"
	 width="612px" height="396px" viewBox="0 0 612 396" enable-background="new 0 0 612 396" xml:space="preserve">
<ellipse fill="#333333" cx="306" cy="390.419" rx="306" ry="117.581"/>
<ellipse opacity="0.1" fill="#121212" cx="327.787" cy="360.543" rx="68.791" ry="14.912"/>
<path fill="#F1EDE5" d="M243.968,214.047v109.997c0,23.043,18.679,37.163,41.719,37.163h41.701c23.039,0,41.721-14.12,41.721-37.163
	V214.047H243.968z"/>
<path fill="#F1EDE5" d="M375.216,234.78c-25.741,0-46.606,20.86-46.606,46.604c0,25.736,20.865,46.604,46.606,46.604
	c25.735,0,46.601-20.868,46.601-46.604C421.816,255.641,400.951,234.78,375.216,234.78z M375.216,312.515
	c-17.197,0-31.134-13.938-31.134-31.131c0-17.194,13.937-31.135,31.134-31.135c17.191,0,31.13,13.94,31.13,31.135
	C406.346,298.576,392.407,312.515,375.216,312.515z"/>
<g opacity="0.15">
	<path fill="#FFFFFF" d="M325.228,163.101c0,0-0.263-0.604-0.649-1.712c-0.385-1.064-0.867-2.894-1.774-4.596
		c-0.771-1.708-1.908-3.734-3.202-5.822c-1.411-2.07-2.955-4.173-4.919-6.257c-1.798-2.108-4.153-4.2-6.474-6.399
		c-2.539-2.199-5.219-4.516-7.991-6.912c-2.886-2.417-5.901-5.003-9.09-7.742c-3.125-2.752-6.388-5.692-9.601-8.842
		c-6.395-6.297-12.801-13.478-17.721-21.666c-2.474-4.078-4.59-8.327-6.114-12.706c-1.586-4.298-2.426-8.786-2.827-12.831
		c-0.04-2.1-0.153-4.04-0.013-5.901c0.247-1.891,0.353-3.608,0.744-5.22c0.434-1.609,0.797-3.059,1.253-4.371
		c0.535-1.31,1.055-2.467,1.571-3.48c0.884-2.047,2.223-3.447,2.834-4.418c0.711-0.947,1.145-1.417,1.145-1.417
		s0.227,0.602,0.648,1.733c0.41,1.104,0.851,2.679,1.72,4.544c0.388,0.89,0.814,1.876,1.28,2.956
		c0.53,0.987,1.102,2.055,1.714,3.199c1.275,2.184,2.802,4.423,4.529,6.646c1.865,2.223,3.747,4.462,6.091,6.736
		c2.191,2.303,4.787,4.627,7.437,7.117c5.448,4.894,11.591,10.369,17.892,16.513c6.254,6.159,12.546,13.093,17.708,20.885
		c2.613,3.809,4.818,8.048,6.631,12.152c1.7,4.283,3.047,8.444,3.567,12.61c0.626,4.076,0.487,7.953,0.008,11.222
		c-0.599,3.278-1.439,5.985-2.517,8.163c-0.876,2.199-2.102,3.364-2.737,4.372C325.663,162.605,325.228,163.101,325.228,163.101z"/>
	<path fill="#FFFFFF" d="M337.221,110.232c0.003,0-0.411-1.89-0.979-4.961c-0.392-1.471-0.824-3.075-1.521-4.891
		c-0.292-0.899-0.667-1.804-1.139-2.707c-0.388-0.914-0.897-1.811-1.46-2.693c-1.044-1.785-2.412-3.474-3.949-5.149
		c-1.508-1.687-3.409-3.32-5.361-5.059c-2.07-1.697-4.321-3.453-6.702-5.323c-2.51-1.936-5.056-3.9-7.6-5.864
		c-5.181-4.209-10.644-8.931-15.122-14.75c-2.24-2.867-4.196-6.015-5.619-9.336c-1.481-3.252-2.264-6.748-2.578-9.882
		c-0.199-3.198,0.094-6.063,0.743-8.437c0.586-2.392,1.572-4.264,2.366-5.727c0.727-1.481,1.727-2.472,2.203-3.172
		c0.543-0.692,0.872-1.028,0.872-1.028c-0.005-0.001,0.396,1.939,1.071,4.854c0.711,2.924,2.153,6.708,4.47,10.032
		c2.411,3.347,5.662,6.416,9.999,9.771c2.103,1.697,4.541,3.393,6.995,5.281c2.495,1.817,5.118,3.856,7.791,5.934
		c2.616,2.168,5.35,4.449,7.898,6.98c2.595,2.523,5.04,5.326,7.198,8.329c2.14,3.077,3.986,6.319,5.225,9.749
		c1.238,3.404,1.921,6.856,1.945,10.02c0.072,3.146-0.385,5.969-1.14,8.274c-0.622,2.312-1.732,4.237-2.51,5.696
		c-0.778,1.426-1.724,2.312-2.218,3.027C337.527,109.875,337.221,110.232,337.221,110.232z"/>
	<path fill="#FFFFFF" d="M272.546,123.459c0,0,0.284,1.313,0.678,3.442c0.271,1.022,0.583,2.131,1.028,3.393
		c0.42,1.247,1.08,2.522,1.832,3.743c1.461,2.481,3.685,4.69,6.457,7.077c2.834,2.376,6.278,4.896,9.92,7.767
		c3.597,2.922,7.383,6.197,10.491,10.229c1.55,1.989,2.909,4.177,3.896,6.48c1.031,2.256,1.573,4.684,1.789,6.852
		c0.156,2.218-0.092,4.213-0.54,5.853c-0.372,1.663-1.064,2.961-1.615,3.977c-0.501,1.028-1.197,1.712-1.526,2.196
		c-0.394,0.464-0.605,0.716-0.605,0.716s-0.275-1.349-0.745-3.369c-0.483-2.031-1.46-4.653-3.1-6.962
		c-1.672-2.316-3.927-4.447-6.939-6.775c-1.573-1.188-3.196-2.415-4.847-3.658c-1.732-1.266-3.555-2.679-5.404-4.122
		c-3.668-2.96-7.466-6.423-10.477-10.618c-1.479-2.134-2.761-4.381-3.622-6.759c-0.858-2.364-1.333-4.761-1.352-6.948
		c-0.066-2.185,0.301-4.148,0.821-5.748c0.395-1.599,1.177-2.936,1.712-3.945c0.543-0.99,1.197-1.605,1.539-2.103
		C272.335,123.706,272.546,123.459,272.546,123.459z"/>
</g>
<path opacity="0.6" fill="#FBFBFB" d="M250.449,219.795h55.29v134.834c-28.673,1.555-52.145-4.707-55.29-26.351
	C248.951,317.968,250.449,219.795,250.449,219.795z"/>
<path opacity="0.5" fill="none" stroke="#FFFFFF" stroke-width="5.8285" stroke-linecap="round" stroke-miterlimit="10" d="
	M375.652,243.109c21.139,0,38.274,17.136,38.274,38.274c0,10.354-4.111,19.749-10.79,26.638"/>
<rect x="319.024" y="260.417" transform="matrix(0.9986 -0.0536 0.0536 0.9986 -14.3351 18.3976)" opacity="0.1" fill="#121212" width="34.095" height="32.457"/>
<rect x="317.127" y="258.714" transform="matrix(0.9986 -0.0536 0.0536 0.9986 -14.247 18.2941)" fill="#E9BE4D" width="34.094" height="32.456"/>
<rect x="318.314" y="259.222" transform="matrix(0.9986 -0.0536 0.0536 0.9986 -13.6614 17.758)" opacity="0.5" fill="#FBFBFB" width="12.14" height="8.926"/>
<rect x="322.965" y="270.758" transform="matrix(0.9986 -0.0536 0.0536 0.9986 -14.0883 18.2938)" opacity="0.2" width="22.439" height="2.348"/>
<rect x="323.182" y="274.79" transform="matrix(0.9986 -0.0536 0.0536 0.9986 -14.3152 18.3263)" opacity="0.2" width="22.44" height="2.348"/>
<rect x="323.407" y="278.986" transform="matrix(0.9986 -0.0536 0.0536 0.9986 -14.5285 18.3293)" opacity="0.2" width="22.439" height="2.349"/>
<rect x="337.87" y="287.049" transform="matrix(0.9986 -0.0534 0.0534 0.9986 -14.8993 18.6095)" opacity="0.5" fill="#FBFBFB" width="5.483" height="1.844"/>
<rect x="344.645" y="286.685" transform="matrix(0.9986 -0.0536 0.0536 0.9986 -14.9179 19.0355)" opacity="0.5" fill="#FBFBFB" width="5.483" height="1.845"/>
<ellipse fill="#F1EDE5" cx="306.542" cy="214.042" rx="62.57" ry="13.563"/>
<ellipse fill="#F1EDE5" cx="305.536" cy="224.723" rx="56.843" ry="12.322"/>
<rect x="333.811" y="214.047" opacity="0.1" fill="#121212" width="1.165" height="44.617"/>
<rect x="332.883" y="214.047" fill="#FBFBFB" width="1.166" height="44.617"/>
<ellipse fill="#A47935" cx="306.542" cy="219.54" rx="54.952" ry="11.912"/>
</svg>
