<?xml version="1.0" encoding="utf-8"?>
<!-- Generator: Adobe Illustrator 16.0.4, SVG Export Plug-In . SVG Version: 6.00 Build 0)  -->
<!DOCTYPE svg PUBLIC "-//W3C//DTD SVG 1.1//EN" "http://www.w3.org/Graphics/SVG/1.1/DTD/svg11.dtd">
<svg version="1.1" id="Layer_1" xmlns="http://www.w3.org/2000/svg" xmlns:xlink="http://www.w3.org/1999/xlink" x="0px" y="0px"
	 width="709.57px" height="347.992px" viewBox="0 0 709.57 347.992" enable-background="new 0 0 709.57 347.992"
	 xml:space="preserve">
<g>
	<path opacity="0.15" fill="#2B2A2A" d="M59.277,230.368h11.339c1.393,0,2.532,1.081,2.532,2.402c0,1.321,0.028,2.402,0.06,2.402
		s0.06,1.14,0.06,2.532v110.288h572.164V232.9c0-1.392,1.142-2.532,2.533-2.532h11.324c1.393,0,2.531-1.14,2.531-2.532V215.81
		c0-1.392-1.139-2.532-2.531-2.532h-32.195c-1.392,0-2.532-0.625-2.532-1.389c0-0.763,0-2.528,0-3.92v-4.315
		c0-1.392,0.146-2.598,0.324-2.679c0,0,0,0,0-0.174c0-0.026,0-0.026,0-0.026c-0.017-0.022-0.017-0.059,0-0.081c0,0,0,0,0-0.027
		c-0.002-0.13-0.002-0.13-0.002-0.13c-0.11-0.079,0.045-0.366,0.345-0.637c0,0,0,0,0-0.386c0-0.097,0-0.097,0-0.097
		c-0.032-0.097-0.032-0.256,0-0.353c0,0,0,0,0-0.097c0-0.434,0-0.434,0-0.434c-0.367-0.275-0.667-1.64-0.667-3.032v-34.676
		c0-1.393,0.3-2.756,0.667-3.032c0,0,0,0,0-0.435c0-0.054,0-0.054,0-0.054c-0.018-0.053-0.018-0.141,0-0.194c0,0,0,0,0-0.054
		c0-0.456,0-0.456,0-0.456c-0.401-0.271-0.729-0.502-0.73-0.515c0-0.013,0.011-0.023,0.023-0.023c0.014,0,0.178-0.066,0.364-0.146
		c0,0,0,0,0-0.181c0-0.039,0-0.039,0-0.039c-0.023-0.032-0.023-0.085,0-0.118c0,0,0,0,0-0.038c-0.002-0.18-0.002-0.18-0.002-0.18
		c-0.185-0.081-0.367-0.147-0.402-0.147s-0.143-0.816-0.236-1.814c-0.096-0.998-0.136-1.816-0.087-1.817
		c0.047,0,0.231-0.072,0.409-0.157c0,0,0,0-0.004-0.18c0-0.026,0-0.026,0-0.026c-0.018-0.023-0.018-0.062,0-0.088c0,0,0,0,0-0.029
		c-0.005-0.181-0.005-0.181-0.005-0.181c-0.182-0.077-0.383-0.139-0.446-0.137c-0.062,0.002-0.124-0.075-0.132-0.17
		c-0.011-0.095,0.048-0.174,0.129-0.176c0.08-0.002,0.292-0.074,0.471-0.159c0,0,0,0-0.005-0.181c0-0.026,0-0.026,0-0.026
		c-0.017-0.023-0.017-0.063,0-0.088c0,0,0,0,0-0.03c-0.003-0.181-0.003-0.181-0.003-0.181c-0.183-0.077-0.409-0.137-0.509-0.135
		c-0.096,0.002-0.185-0.083-0.194-0.189s0.084-0.196,0.21-0.199c0.124-0.003,0.373-0.075,0.552-0.161c0,0,0,0-0.005-0.18
		c-0.002-0.026-0.002-0.026-0.002-0.026c-0.015-0.022-0.015-0.061,0.002-0.087c0,0,0,0,0-0.029
		c-0.006-0.181-0.006-0.181-0.006-0.181c-0.181-0.076-0.444-0.137-0.588-0.133c-0.14,0.004-0.357-1.065-0.482-2.375
		c-0.123-1.31,0.026-2.535,0.332-2.721c0.305-0.187,0.556-1.778,0.556-2.716c0-0.938-0.143-2.022-0.317-2.41
		c-0.174-0.388-2.232-0.706-3.625-0.706H605.16c-1.393,0-2.851,0.142-3.237,0.316c-0.388,0.174-0.704,1.862-0.704,2.799
		c0,0.938,0.134,2.011,0.3,2.386c0.163,0.375,0.917,1.85,0.761,3.233l-0.023,0.201c-0.158,1.384-0.367,2.518-0.466,2.52
		c-0.101,0.002-0.327,0.074-0.507,0.159c0,0,0,0,0.006,0.181c0,0.027,0,0.027,0,0.027c0.015,0.021,0.015,0.061-0.001,0.087
		c0,0,0,0,0.001,0.029c0.005,0.18,0.005,0.18,0.005,0.18c0.182,0.076,0.388,0.137,0.458,0.135c0.072-0.001,0.12,0.084,0.107,0.192
		c-0.012,0.107-0.086,0.196-0.161,0.198s-0.285,0.073-0.461,0.158c0,0,0,0,0.002,0.18c0,0.026,0,0.026,0,0.026
		c0.017,0.022,0.015,0.062-0.002,0.088c0,0,0,0,0.002,0.029c0.006,0.181,0.006,0.181,0.006,0.181
		c0.181,0.076,0.369,0.137,0.415,0.137c0.049-0.001,0.078,0.076,0.067,0.172c-0.011,0.096-0.057,0.176-0.102,0.177
		c-0.043,0.001-0.226,0.072-0.404,0.156c0,0,0,0,0.005,0.181c0,0.026,0,0.026,0,0.026c0.017,0.022,0.017,0.062,0,0.088
		c0,0,0,0,0,0.03c0.004,0.18,0.004,0.18,0.004,0.18c0.183,0.076,0.344,0.138,0.358,0.138c0.016,0-0.052,0.7-0.148,1.558
		c-0.097,0.857-0.212,1.558-0.256,1.558c-0.046,0-0.233,0.066-0.419,0.147c0,0,0,0,0,0.182c0,0.038,0,0.038,0,0.038
		c0.021,0.033,0.021,0.085,0,0.118c0,0,0,0,0,0.038c-0.003,0.181-0.003,0.181-0.003,0.181c0.188,0.081,0.354,0.146,0.373,0.146
		c0.017,0,0.029,0.014,0.029,0.029c-0.002,0.016-0.273,0.258-0.605,0.537c0,0,0,0,0,0.41c0,0.054,0,0.054,0,0.054
		c0.017,0.053,0.017,0.141,0,0.194c0,0,0,0,0,0.054c0,0.381,0,0.381,0,0.381c0.294,0.27,0.533,1.629,0.533,3.021v34.804
		c0,1.392-0.239,2.751-0.533,3.021c0,0,0,0,0,0.381c0,0.097,0,0.097,0,0.097c0.029,0.097,0.029,0.256,0,0.353c0,0,0,0,0,0.097
		c0,0.373,0,0.373,0,0.373c0.281,0.267,0.373,0.55,0.206,0.628c0,0,0,0,0,0.171c0,0.026,0,0.026,0,0.026
		c0.014,0.022,0.014,0.06,0,0.082c0,0,0,0,0,0.025c-0.003,0.177-0.003,0.177-0.003,0.177c0.183,0.079,0.33,1.285,0.33,2.678v4.293
		c0,1.392,0,3.157,0,3.92c0,0.765-1.139,1.389-2.531,1.389H568.03c-1.392,0-2.38-0.223-2.194-0.494
		c0.187-0.271,0.659-2.189,0.919-3.557l5.693-29.859c0.262-1.368,0.963-2.487,1.561-2.487s1.496-0.179,1.996-0.397
		c0.501-0.219,0.909-2.518,0.909-3.911v-8.705c0-1.393-0.183-2.931-0.407-3.419c-0.223-0.488-2.551-0.888-3.943-0.888h-9.321
		c-1.393,0-2.39-1.13-2.213-2.511c0,0,0.016-0.117,0.029-1.503c-0.006-1.516-0.104-2.096-0.104-2.096
		c-0.23-1.373-0.338-2.624-0.237-2.779c0.104-0.155,0.741-1.148,1.181-1.85c0,0,0,0,0.426-0.629
		c0.218-0.316,0.218-0.316,0.218-0.316c0.212-0.345,0.482-0.767,0.602-0.938c0.118-0.171,0.627-0.913,0.86-1.26
		c0.232-0.347,1.364-2.25,2.071-3.451c0,0,0.257-0.435,0.812-2.035c0.51-1.583,0.77-3.497,1.128-5.601
		c0.325-2.098,0.893-4.334,1.731-6.486c0.827-2.155,1.813-4.368,2.71-6.636c0.938-2.238,1.817-4.587,2.647-6.882
		c1.627-4.641,2.84-9.328,3.266-13.482c0.255-2.055,0.204-4.004,0.108-5.676c-0.13-1.686-0.161-1.842-0.161-1.842
		c-0.274-1.365-0.764-3.373-1.085-4.461c0,0,0,0-0.209-0.562c-0.215-0.555-0.215-0.555-0.215-0.555
		c-0.062-0.161-0.332-0.604-0.601-0.986c0,0,0,0-0.434-0.089c-0.681-0.139-0.681-0.139-0.681-0.139
		c-0.441,0.616-0.834,1.26-0.87,1.428c0,0,0,0-0.116,0.58c-0.126,0.569-0.126,0.569-0.126,0.569
		c-0.251,0.993-0.778,2.731-1.176,3.862c0,0,0,0-0.544,1.238c-0.572,1.239-1.314,2.562-2.216,3.957
		c-0.857,1.396-1.976,2.842-3.182,4.331c-1.262,1.484-2.585,3.045-4.089,4.639c-2.803,3.05-7.381,8.223-7.381,8.223
		c-0.922,1.042-1.461,0.777-1.194-0.589c0,0,0.126-0.646,0.426-2.272c0.549-2.935,1.185-5.937,1.897-8.949
		c0.717-3.005,1.43-6.041,2.059-9.067c0.663-3.015,1.153-6.044,1.552-8.986c0.402-2.941,0.667-5.821,0.764-8.557
		c0.071-2.738,0.029-5.327-0.161-7.706c-0.179-2.38-0.479-4.542-0.828-6.438c-0.193-0.943-0.193-0.943-0.193-0.943
		c-0.191-0.934-0.539-2.395-0.776-3.248c0,0,0,0-0.187-0.671c-0.35-1.344-0.35-1.344-0.35-1.344
		c-0.351-0.908-0.72-1.886-0.819-2.174c-0.104-0.288-0.337-0.706-0.519-0.93c0,0,0,0-0.269,0.036
		c-0.304,0.042-0.304,0.042-0.304,0.042c-0.097,0.322-0.162,0.671-0.146,0.777c0.014,0.105,0.19,1.31,0.272,1.8
		c0.081,0.49,0.295,3.342,0.395,4.73c0,0,0.026,0.367,0.046,2.207c0.016,1.832-0.055,3.891-0.277,6.123
		c-0.205,2.229-0.589,4.627-1.095,7.137c-0.553,2.507-1.134,5.136-1.941,7.826c-1.587,5.386-3.575,11.062-5.724,16.811
		c-1.067,2.87-2.242,5.741-3.382,8.61c-1.164,2.859-2.19,5.772-2.94,8.69c-0.552,2.148-0.791,3.942-0.791,3.942
		c-0.185,1.38-1.062,1.632-1.949,0.559c0,0-1.115-1.345-2.082-2.892c-0.771-1.191-1.407-2.323-1.896-3.384
		c-0.466-1.057-0.466-1.057-0.466-1.057c-0.34-0.967-0.79-2.454-1.004-3.302c0,0,0,0-0.109-0.486
		c-0.101-0.495-0.101-0.495-0.101-0.495c-0.029-0.146-0.195-0.559-0.369-0.918c0,0,0,0-0.352-0.137
		c-0.554-0.211-0.554-0.211-0.554-0.211c-0.461,0.456-0.881,0.943-0.936,1.082c0,0,0,0-0.182,0.473
		c-0.181,0.483-0.181,0.483-0.181,0.483c-0.272,0.93-0.701,2.706-0.952,3.946c0,0,0,0-0.111,1.442
		c-0.082,1.429-0.123,3.096,0.092,4.852c0.367,3.553,1.406,7.559,2.795,11.526c1.387,3.964,3.123,7.882,4.58,11.56
		c0.719,1.84,1.201,3.751,1.479,5.543c0.307,1.801,0.528,3.438,0.968,4.792c0.474,1.367,0.505,1.421,0.505,1.421
		c0.706,1.201,1.292,2.198,1.304,2.217c0.013,0.019-1.099,0.068-2.49,0.068h-9.031c-1.393,0-2.941,0.179-3.44,0.398
		c-0.501,0.218-0.91,2.516-0.91,3.909v8.705c0,1.393,0.183,2.932,0.407,3.419c0.223,0.489,1.912,0.888,2.524,0.888
		s1.337,1.117,1.61,2.482l5.971,29.899c0.273,1.365,0.596,2.728,0.716,3.029c0.121,0.301-0.517,0.987-1.908,0.987H484.12
		c-1.392,0-2.025-0.65-1.409-1.444c0,0,0,0,0-0.934c0-1.836-1.354-2.38-1.354-2.38c-1.291-0.52-3.488-0.945-4.881-0.945h-8.238
		c-1.393,0-3.588,0.425-4.882,0.945c0,0-1.354,0.544-1.354,2.38c0,0.934,0,0.934,0,0.934c0.618,0.794-0.017,1.444-1.409,1.444
		h-16.118c-1.392,0-2.529-0.536-2.529-1.19c0-0.653-0.734-1.188-1.632-1.188c-0.896,0-1.629-0.261-1.629-0.581
		s-1.141-0.581-2.534-0.581h-1.525c-1.393,0-2.531,0.261-2.531,0.581s-0.351,0.581-0.776,0.581c-0.427,0-0.774-0.261-0.774-0.581
		s-1.142-0.581-2.534-0.581h-1.525c-1.393,0-2.531,0.261-2.531,0.581s-0.306,0.581-0.678,0.581s-0.677-0.261-0.677-0.581
		s-1.14-0.581-2.533-0.581h-1.537c-1.392,0-2.532,0.261-2.532,0.581s-0.313,0.581-0.702,0.581c-0.386,0-0.702-0.261-0.702-0.581
		s-1.139-0.581-2.531-0.581h-1.54c-1.391,0-2.529,0.261-2.529,0.581s-0.349,0.581-0.774,0.581c-0.423,0-0.771-0.261-0.771-0.581
		s-1.14-0.581-2.532-0.581h-1.537c-1.392,0-2.532,0.261-2.532,0.581s-0.741,0.581-1.647,0.581c-0.908,0-1.647-0.261-1.647-0.581
		s-0.991-0.581-2.201-0.581c-1.211,0-2.33-0.267-2.488-0.595c-0.16-0.327-1.865-0.595-2.968-0.595c-1.104,0-2.009-0.006-2.009-0.013
		c0-0.006,0.04-0.013,0.086-0.013c0.047,0,0.087-1.14,0.087-2.532v-11.038c0-1.393-0.04-2.532-0.087-2.532
		c-0.046,0-0.086-0.095-0.086-0.212c0-0.117,1.141-0.212,2.532-0.212h70.889c1.394,0,3.588-0.426,4.881-0.945l2.768-2.407
		c0.62-1.247,1.128-2.516,1.128-2.821c0-0.306,0-1.694,0-3.087V85.347c0-1.393,0-2.668,0-2.834c0-0.167-0.508-1.323-1.128-2.57
		l-2.768-2.407c-1.293-0.52-3.487-0.945-4.881-0.945H279.719c-1.392,0-3.588,0.425-4.88,0.945l-2.766,2.407
		c-0.621,1.247-1.128,2.403-1.128,2.57c0,0.167,0,1.442,0,2.834v97.389c0,1.393,0,2.782,0,3.087c0,0.305,0.507,1.575,1.128,2.821
		l2.766,2.407c1.292,0.52,3.488,0.945,4.88,0.945h67.29c1.392,0,2.531,1.139,2.531,2.532v11.488c0,1.392-1.14,2.532-2.531,2.532
		h-0.216c-1.392,0-2.804,0.119-3.136,0.264c-0.334,0.146-1.787,0.926-3.179,0.926h-0.354c-1.393,0-2.532,0.261-2.532,0.581
		s-0.656,0.581-1.458,0.581s-1.458-0.261-1.458-0.581s-1.141-0.581-2.532-0.581h-5.13c-1.393,0-2.532,0.261-2.532,0.581
		s-0.368,0.581-0.819,0.581c-0.449,0-0.818-0.261-0.818-0.581s-1.141-0.581-2.532-0.581h-3.898c-1.392,0-2.531,0.261-2.531,0.581
		s-0.276,0.581-0.613,0.581c-0.338,0-0.614-0.261-0.614-0.581s-1.14-0.581-2.532-0.581h-0.971c-1.392,0-2.532,0.261-2.532,0.581
		s-0.317,0.581-0.707,0.581c-0.388,0-0.706-0.261-0.706-0.581s-1.14-0.581-2.532-0.581h-0.97c-1.393,0-2.532,0.261-2.532,0.581
		s-0.371,0.581-0.822,0.581c-0.453,0-0.823-0.261-0.823-0.581s-1.14-0.581-2.532-0.581h-0.971c-1.392,0-2.532,0.261-2.532,0.581
		s-0.375,0.581-0.833,0.581c-0.459,0-0.834,0.536-0.834,1.188c0,0.654-1.14,1.19-2.532,1.19h-72.759
		c-1.393,0-2.005-0.679-1.363-1.51c0.643-0.831,1.768-3.593,2.278-3.535c0,0,0,0,0.479,0c5.76,0,10.429-4.669,10.429-10.429
		c0-5.76-4.669-10.428-10.429-10.428c-0.465,0-0.465,0-0.465,0c-0.496,0.055-0.901-0.967-0.901-2.271c0-1.304-1.14-2.37-2.532-2.37
		h-22.94c-1.393,0-2.532,1.139-2.532,2.532v19.551c0,1.393,0.219,3.544,0.487,4.782c0.27,1.237,0.931,3.678-0.461,3.678h-15.637
		c-1.392,0-2.083-1.047-1.534-2.327c0,0,0.25-0.585,0.25-2.403c0-3.932-2.787-5.741-2.787-5.741
		c-1.167-0.758-3.262-1.379-4.655-1.379h-11.278c-1.392,0-2.968-1.053-3.501-2.339l-13.665-15.301
		c-1.226-0.661-2.469-2.314-2.763-3.675l-14.356-66.639c-0.293-1.361,0.271-3.282,1.254-4.268c0,0,3.759-3.772,3.759-7.906
		c0-2.102-0.576-3.426-0.576-3.426c-0.556-1.277-0.206-3.127,0.78-4.111l53.888-53.889c0.986-0.984,2.472-1.065,3.306-0.179
		c0.833,0.886,1.565,1.652,1.628,1.704c0.062,0.053-0.598,0.952-1.612,1.906l-0.303,0.285c-1.014,0.955-2.122,2.342-2.46,3.083
		s0.742,3.484,1.49,4.66l15.187,23.879c0.748,1.175,1.852,2.441,2.452,2.814c0.602,0.373,2.938-1.056,3.953-2.009l6.44-6.06
		c1.015-0.954,2.938-1.423,4.274-1.042c0,0,0,0,1.318,0.041c6.585,0.201,12.086-4.974,12.287-11.558
		c0.04-1.319,0.04-1.319,0.04-1.319c-0.299-1.359,0.286-3.25,1.301-4.205l6.259-5.889c1.015-0.954,2.044-2.265,2.29-2.915
		c0.245-0.65-1.669-2.572-2.833-3.337l-23.957-15.761c-1.163-0.765-2.777-1.529-3.587-1.697c-0.81-0.167-3.317,1.43-4.331,2.384
		l-0.299,0.281c-1.014,0.954-1.876,1.678-1.914,1.609c-0.039-0.069-0.957-1.066-1.911-2.081L184.059,13.07
		c-0.954-1.015-2.043-2.001-2.417-2.194s-1.976,0.867-2.99,1.821l-1.772,1.667c-1.013,0.954-2.204,1.096-2.645,0.316
		s-1.03-1.535-1.309-1.678c-0.278-0.143-1.593,0.763-2.504,1.619c-0.91,0.856-1.72,1.767-1.8,2.024
		c-0.08,0.256,0.877,1.294,1.632,1.778c0.756,0.483,0.544,1.66-0.47,2.615l-1.702,1.601c-1.015,0.954-1.933,2.018-2.042,2.365
		c-0.108,0.347,1.131,2.042,2.085,3.056l1.71,1.818c0.954,1.014,0.93,2.649-0.056,3.634l-55.024,55.025
		c-0.985,0.984-2.548,1.653-3.475,1.485c0,0,0,0-0.885,0c-0.166,0-0.166,0-0.166,0c-0.18,0.014-0.473,0.014-0.652,0c0,0,0,0-0.166,0
		c-6.229,0-11.276,5.048-11.276,11.276c0,5.575,7.184,9.815,7.184,9.815c1.199,0.708,2.42,2.4,2.714,3.761l14.286,66.316
		c0.293,1.361-0.366,3.174-1.465,4.028l-9.548,13.811c-0.451,1.318-1.958,2.396-3.351,2.396H97.041
		c-1.393,0-3.487,0.621-4.655,1.379c0,0-2.787,1.81-2.787,5.741c0,1.818,0.251,2.403,0.251,2.403
		c0.547,1.28-0.144,2.327-1.536,2.327H59.277c-1.392,0-2.532,1.14-2.532,2.532v12.026C56.746,229.228,57.885,230.368,59.277,230.368
		z M214.563,193.506c0-1.393,0.404-2.592,0.898-2.667c0,0,0,0,0.468,0c3.847,0,6.966,3.119,6.966,6.966s-3.119,6.967-6.966,6.967
		c-0.468,0-0.468,0-0.468,0c-0.494-0.074-0.898-1.275-0.898-2.667V193.506z M118.115,89.931l53.968-53.97
		c0.986-0.984,2.101-1.46,2.479-1.057c0.379,0.403-0.115,1.539-1.101,2.523l-53.724,53.724c-0.985,0.984-2.025,1.596-2.312,1.359
		C117.138,92.273,117.129,90.915,118.115,89.931z M111.5,115.022c-0.293-1.361-0.229-2.503,0.143-2.538
		c0.371-0.035,1.561,0.9,1.854,2.261l14.071,65.312c0.293,1.361-0.443,2.568-0.808,2.622c-0.365,0.054-0.903-1.016-1.197-2.376
		L111.5,115.022z"/>
	<g>
		<path fill="#D4D4D4" d="M382.232,208.615c0,3.496-2.834,6.329-6.331,6.329h-24.684c-3.496,0-6.33-2.833-6.33-6.329v-81.647
			c0-3.495,2.834-6.329,6.33-6.329h24.684c3.497,0,6.331,2.834,6.331,6.329V208.615z"/>
	</g>
	<g>
		<polygon fill="#DBDBDB" points="382.401,205.325 358.772,205.325 367.649,189.225 382.401,189.225 		"/>
	</g>
	<g opacity="0.1">
		<rect x="88.579" y="236.78" width="4.722" height="108.229"/>
	</g>
	<g>
		<path fill="#F1F1F1" d="M387.511,210.032c0,0.7-0.566,1.266-1.267,1.266H339.61c-0.7,0-1.267-0.566-1.267-1.266v-3.415
			c0-0.699,0.566-1.266,1.267-1.266h46.634c0.7,0,1.267,0.566,1.267,1.266V210.032z"/>
	</g>
	<g>
		<rect x="68.617" y="219.5" fill="#2C2C2C" width="572.165" height="128.491"/>
	</g>
	<g>
		<rect x="68.617" y="218.627" fill="#333333" width="127.888" height="129.365"/>
	</g>
	<g opacity="0.15">
		<rect x="75.812" y="236.63" width="113.912" height="36.498"/>
	</g>
	<g>
		<rect x="77.08" y="237.771" fill="#333333" width="111.514" height="33.076"/>
	</g>
	<g opacity="0.15">
		<rect x="75.881" y="282.035" width="113.912" height="65.051"/>
	</g>
	<g>
		<rect x="68.496" y="227.172" fill="#2C2C2C" width="128.008" height="4.803"/>
	</g>
	<g>
		<path fill="#F1F1F1" d="M272.536,186.358c-3.874,0-7.025-3.036-7.025-6.768V68.607c0-3.732,3.151-6.769,7.025-6.769h185.647
			c3.873,0,7.024,3.037,7.024,6.769v110.984c0,3.731-3.151,6.768-7.024,6.768H272.536z"/>
	</g>
	<g>
		<path d="M464.426,178.408c0,3.253-2.795,5.887-6.242,5.887H272.536c-3.448,0-6.244-2.634-6.244-5.887V69.252
			c0-3.253,2.795-5.886,6.244-5.886h185.647c3.447,0,6.242,2.633,6.242,5.886V178.408z"/>
	</g>
	<g>
		<path fill="#DCB862" d="M139.487,293.218c-1.673,2.665-4.631,4.442-8.01,4.442c-3.38,0-6.337-1.777-8.012-4.442h-5.226
			c2.029,5.342,7.184,9.146,13.238,9.146s11.208-3.804,13.237-9.146H139.487z"/>
	</g>
	<g>
		<rect x="77.08" y="284.651" fill="#333333" width="111.514" height="62.551"/>
	</g>
	<g>
		<circle fill="#2C2C2C" cx="129.302" cy="254.879" r="4.966"/>
	</g>
	<g>
		<circle fill="#2C2C2C" cx="129.698" cy="297.228" r="4.966"/>
	</g>
	<g>
		<circle fill="#E9BE4D" cx="130.487" cy="253.536" r="4.966"/>
	</g>
	<g>
		<path fill="#E8CF98" d="M133.957,254.633c-0.296,0-0.537-0.24-0.537-0.537c0-1.85-1.505-3.355-3.356-3.355
			c-0.296,0-0.536-0.24-0.536-0.537c0-0.296,0.24-0.537,0.536-0.537c2.442,0,4.43,1.987,4.43,4.429
			C134.493,254.393,134.253,254.633,133.957,254.633z"/>
	</g>
	<g>
		<circle fill="#DCB862" cx="574.657" cy="253.536" r="4.966"/>
	</g>
	<g>
		<circle fill="#E9BE4D" cx="130.487" cy="295.861" r="4.966"/>
	</g>
	<g>
		<rect x="512.787" y="218.627" fill="#333333" width="127.888" height="129.365"/>
	</g>
	<g opacity="0.15">
		<rect x="519.982" y="236.63" width="113.913" height="37.106"/>
	</g>
	<g>
		<rect x="521.252" y="237.771" fill="#333333" width="111.514" height="34.217"/>
	</g>
	<g opacity="0.15">
		<rect x="273.061" y="78.308" fill="#FFFFFF" width="184.29" height="98.529"/>
	</g>
	<g opacity="0.15">
		<rect x="520.05" y="281.296" width="113.915" height="65.79"/>
	</g>
	<g>
		<rect x="521.252" y="283.463" fill="#333333" width="111.514" height="63.739"/>
	</g>
	<g>
		<circle fill="#2C2C2C" cx="575.972" cy="297.228" r="4.966"/>
	</g>
	<g>
		<circle fill="#E9BE4D" cx="574.657" cy="295.861" r="4.966"/>
	</g>
	<g>
		<circle fill="#2C2C2C" cx="575.833" cy="254.879" r="4.966"/>
	</g>
	<g>
		<circle fill="#E9BE4D" cx="574.657" cy="253.536" r="4.966"/>
	</g>
	<g>
		<rect x="512.787" y="227.172" fill="#2C2C2C" width="127.888" height="4.803"/>
	</g>
	<g>
		<g>
			<g opacity="0.2">
				<rect x="273.061" y="71.61" width="184.29" height="104.976"/>
			</g>
			<g>
				<g opacity="0.2">
					<rect x="280.264" y="88.477" fill="#E0E0E0" width="23.066" height="2.07"/>
				</g>
				<g>
					<rect x="280.264" y="84.855" fill="#E9BE4D" width="14.002" height="2.069"/>
				</g>
				<g>
					<rect x="295.465" y="84.855" fill="#3C681E" width="14.002" height="2.069"/>
				</g>
				<g opacity="0.2">
					<rect x="280.264" y="99.772" fill="#E0E0E0" width="34.395" height="2.069"/>
				</g>
				<g>
					<rect x="280.264" y="96.237" fill="#F1EDE5" width="8.094" height="2.069"/>
				</g>
				<g opacity="0.2">
					<rect x="280.264" y="92.271" fill="#E0E0E0" width="37.066" height="2.068"/>
				</g>
				<g>
					<rect x="300.713" y="96.237" fill="#E9BE4D" width="9.603" height="2.069"/>
				</g>
				<g>
					<rect x="289.462" y="96.237" fill="#B56349" width="9.605" height="2.069"/>
				</g>
			</g>
			<g>
				<g>
					<g>
						<defs>
							<rect id="SVGID_1_" x="288.99" y="135.215" width="14.323" height="2.399"/>
						</defs>
						<clipPath id="SVGID_2_">
							<use xlink:href="#SVGID_1_"  overflow="visible"/>
						</clipPath>
						<rect x="288.993" y="135.216" clip-path="url(#SVGID_2_)" fill="#4B66CE" width="1.191" height="2.399"/>
						<rect x="290.184" y="135.216" clip-path="url(#SVGID_2_)" fill="#4A66CF" width="1.195" height="2.399"/>
						<rect x="291.379" y="135.216" clip-path="url(#SVGID_2_)" fill="#4966D0" width="1.191" height="2.399"/>
						<rect x="292.57" y="135.216" clip-path="url(#SVGID_2_)" fill="#4966D1" width="1.195" height="2.399"/>
						<rect x="293.765" y="135.216" clip-path="url(#SVGID_2_)" fill="#4866D2" width="1.191" height="2.399"/>
						<rect x="294.956" y="135.216" clip-path="url(#SVGID_2_)" fill="#4766D3" width="1.195" height="2.399"/>
						<rect x="296.151" y="135.216" clip-path="url(#SVGID_2_)" fill="#4666D5" width="1.195" height="2.399"/>
						<rect x="297.347" y="135.216" clip-path="url(#SVGID_2_)" fill="#4566D6" width="1.191" height="2.399"/>
						<rect x="298.538" y="135.216" clip-path="url(#SVGID_2_)" fill="#4466D7" width="1.195" height="2.399"/>
						<rect x="299.732" y="135.216" clip-path="url(#SVGID_2_)" fill="#4466D8" width="1.195" height="2.399"/>
						<rect x="300.928" y="135.216" clip-path="url(#SVGID_2_)" fill="#4366D9" width="1.19" height="2.399"/>
						<rect x="302.118" y="135.216" clip-path="url(#SVGID_2_)" fill="#4266DA" width="1.195" height="2.399"/>
						<path clip-path="url(#SVGID_2_)" fill="#4266DA" d="M303.313,137.615v-2.399V137.615z"/>
					</g>
				</g>
				<g>
					<g>
						<defs>
							<rect id="SVGID_3_" x="322.578" y="135.215" width="2.627" height="2.399"/>
						</defs>
						<clipPath id="SVGID_4_">
							<use xlink:href="#SVGID_3_"  overflow="visible"/>
						</clipPath>
						<rect x="322.578" y="135.216" clip-path="url(#SVGID_4_)" fill="#4B66CE" width="0.219" height="2.399"/>
						<rect x="322.797" y="135.216" clip-path="url(#SVGID_4_)" fill="#4A66CF" width="0.218" height="2.399"/>
						<rect x="323.015" y="135.216" clip-path="url(#SVGID_4_)" fill="#4966D0" width="0.222" height="2.399"/>
						<rect x="323.236" y="135.216" clip-path="url(#SVGID_4_)" fill="#4966D1" width="0.219" height="2.399"/>
						<rect x="323.455" y="135.216" clip-path="url(#SVGID_4_)" fill="#4866D2" width="0.218" height="2.399"/>
						<rect x="323.673" y="135.216" clip-path="url(#SVGID_4_)" fill="#4766D3" width="0.219" height="2.399"/>
						<rect x="323.892" y="135.216" clip-path="url(#SVGID_4_)" fill="#4666D5" width="0.218" height="2.399"/>
						<rect x="324.109" y="135.216" clip-path="url(#SVGID_4_)" fill="#4566D6" width="0.218" height="2.399"/>
						<rect x="324.327" y="135.216" clip-path="url(#SVGID_4_)" fill="#4466D7" width="0.223" height="2.399"/>
						<rect x="324.55" y="135.216" clip-path="url(#SVGID_4_)" fill="#4466D8" width="0.218" height="2.399"/>
						<rect x="324.768" y="135.216" clip-path="url(#SVGID_4_)" fill="#4366D9" width="0.218" height="2.399"/>
						<rect x="324.985" y="135.216" clip-path="url(#SVGID_4_)" fill="#4266DA" width="0.219" height="2.399"/>
						<rect x="325.204" y="135.216" clip-path="url(#SVGID_4_)" fill="#4266DA" width="0.004" height="2.399"/>
					</g>
				</g>
				<g opacity="0.2">
					<rect x="279.607" y="135.215" fill="#E0E0E0" width="8.117" height="2.399"/>
				</g>
				<g opacity="0.2">
					<rect x="304.823" y="135.215" fill="#E0E0E0" width="16.253" height="2.399"/>
				</g>
				<g opacity="0.2">
					<rect x="279.607" y="130.913" fill="#E0E0E0" width="42.971" height="2.401"/>
				</g>
				<g>
					<rect x="279.607" y="113.23" fill="#3C681E" width="4.692" height="2.399"/>
				</g>
				<g opacity="0.2">
					<rect x="286.644" y="113.23" fill="#E0E0E0" width="31.37" height="2.399"/>
				</g>
				<g>
					<rect x="279.607" y="126.484" fill="#E9BE4D" width="11.133" height="2.398"/>
				</g>
				<g>
					<rect x="292.477" y="126.484" fill="#B56349" width="11.134" height="2.398"/>
				</g>
				<g>
					<rect x="323.893" y="130.913" fill="#B56349" width="11.134" height="2.401"/>
				</g>
				<g opacity="0.2">
					<rect x="305.347" y="126.484" fill="#E0E0E0" width="11.133" height="2.398"/>
				</g>
				<g opacity="0.2">
					<rect x="279.607" y="122.228" fill="#E0E0E0" width="33.401" height="2.399"/>
				</g>
				<g opacity="0.2">
					<rect x="279.607" y="117.629" fill="#E0E0E0" width="16.233" height="2.4"/>
				</g>
				<g>
					<g>
						<defs>
							<rect id="SVGID_5_" x="296.778" y="117.629" width="11.477" height="2.4"/>
						</defs>
						<clipPath id="SVGID_6_">
							<use xlink:href="#SVGID_5_"  overflow="visible"/>
						</clipPath>
						<rect x="296.776" y="117.629" clip-path="url(#SVGID_6_)" fill="#4B66CE" width="0.957" height="2.398"/>
						<rect x="297.732" y="117.629" clip-path="url(#SVGID_6_)" fill="#4A66CF" width="0.956" height="2.398"/>
						<rect x="298.688" y="117.629" clip-path="url(#SVGID_6_)" fill="#4966D0" width="0.96" height="2.398"/>
						<rect x="299.648" y="117.629" clip-path="url(#SVGID_6_)" fill="#4966D1" width="0.956" height="2.398"/>
						<rect x="300.604" y="117.629" clip-path="url(#SVGID_6_)" fill="#4866D2" width="0.957" height="2.398"/>
						<rect x="301.561" y="117.629" clip-path="url(#SVGID_6_)" fill="#4766D3" width="0.956" height="2.398"/>
						<rect x="302.517" y="117.629" clip-path="url(#SVGID_6_)" fill="#4666D5" width="0.956" height="2.398"/>
						<rect x="303.473" y="117.629" clip-path="url(#SVGID_6_)" fill="#4566D6" width="0.957" height="2.398"/>
						<rect x="304.429" y="117.629" clip-path="url(#SVGID_6_)" fill="#4466D7" width="0.956" height="2.398"/>
						<rect x="305.385" y="117.629" clip-path="url(#SVGID_6_)" fill="#4466D8" width="0.957" height="2.398"/>
						<rect x="306.342" y="117.629" clip-path="url(#SVGID_6_)" fill="#4366D9" width="0.955" height="2.398"/>
						<rect x="307.297" y="117.629" clip-path="url(#SVGID_6_)" fill="#4266DA" width="0.957" height="2.398"/>
						<rect x="308.254" y="117.629" clip-path="url(#SVGID_6_)" fill="#4266DA" width="0.004" height="2.398"/>
					</g>
				</g>
				<g opacity="0.2">
					<rect x="308.88" y="117.629" fill="#E0E0E0" width="11.479" height="2.4"/>
				</g>
			</g>
			<g>
				<g>
					<g>
						<defs>
							<rect id="SVGID_7_" x="289.256" y="171.105" width="2.625" height="2.398"/>
						</defs>
						<clipPath id="SVGID_8_">
							<use xlink:href="#SVGID_7_"  overflow="visible"/>
						</clipPath>
						<rect x="289.257" y="171.104" clip-path="url(#SVGID_8_)" fill="#4B66CE" width="0.218" height="2.399"/>
						<rect x="289.475" y="171.104" clip-path="url(#SVGID_8_)" fill="#4A66CF" width="0.218" height="2.399"/>
						<rect x="289.693" y="171.104" clip-path="url(#SVGID_8_)" fill="#4966D0" width="0.218" height="2.399"/>
						<rect x="289.911" y="171.104" clip-path="url(#SVGID_8_)" fill="#4966D1" width="0.222" height="2.399"/>
						<rect x="290.133" y="171.104" clip-path="url(#SVGID_8_)" fill="#4866D2" width="0.218" height="2.399"/>
						<rect x="290.352" y="171.104" clip-path="url(#SVGID_8_)" fill="#4766D3" width="0.218" height="2.399"/>
						<rect x="290.57" y="171.104" clip-path="url(#SVGID_8_)" fill="#4666D5" width="0.218" height="2.399"/>
						<rect x="290.788" y="171.104" clip-path="url(#SVGID_8_)" fill="#4566D6" width="0.217" height="2.399"/>
						<rect x="291.005" y="171.104" clip-path="url(#SVGID_8_)" fill="#4466D7" width="0.218" height="2.399"/>
						<rect x="291.224" y="171.104" clip-path="url(#SVGID_8_)" fill="#4466D8" width="0.218" height="2.399"/>
						<rect x="291.442" y="171.104" clip-path="url(#SVGID_8_)" fill="#4366D9" width="0.222" height="2.399"/>
						<rect x="291.664" y="171.104" clip-path="url(#SVGID_8_)" fill="#4266DA" width="0.218" height="2.399"/>
						<path clip-path="url(#SVGID_8_)" fill="#4266DA" d="M291.882,173.503v-2.399V173.503z"/>
					</g>
				</g>
				<g>
					<rect x="293.276" y="171.105" fill="#3C681E" width="16.755" height="2.398"/>
				</g>
				<g opacity="0.2">
					<rect x="279.905" y="171.105" fill="#E0E0E0" width="8.116" height="2.398"/>
				</g>
				<g>
					<rect x="297.528" y="166.803" fill="#B56349" width="15.696" height="2.4"/>
				</g>
				<g>
					<rect x="279.905" y="149.121" fill="#3C681E" width="4.692" height="2.399"/>
				</g>
				<g opacity="0.2">
					<rect x="286.942" y="149.121" fill="#E0E0E0" width="16.669" height="2.399"/>
				</g>
				<g>
					<g>
						<defs>
							<rect id="SVGID_9_" x="279.905" y="162.374" width="11.134" height="2.4"/>
						</defs>
						<clipPath id="SVGID_10_">
							<use xlink:href="#SVGID_9_"  overflow="visible"/>
						</clipPath>
						<rect x="279.906" y="162.374" clip-path="url(#SVGID_10_)" fill="#4B66CE" width="0.927" height="2.399"/>
						<rect x="280.833" y="162.374" clip-path="url(#SVGID_10_)" fill="#4A66CF" width="0.927" height="2.399"/>
						<rect x="281.759" y="162.374" clip-path="url(#SVGID_10_)" fill="#4966D0" width="0.931" height="2.399"/>
						<rect x="282.69" y="162.374" clip-path="url(#SVGID_10_)" fill="#4966D1" width="0.926" height="2.399"/>
						<rect x="283.617" y="162.374" clip-path="url(#SVGID_10_)" fill="#4866D2" width="0.927" height="2.399"/>
						<rect x="284.543" y="162.374" clip-path="url(#SVGID_10_)" fill="#4766D3" width="0.927" height="2.399"/>
						<rect x="285.47" y="162.374" clip-path="url(#SVGID_10_)" fill="#4666D5" width="0.931" height="2.399"/>
						<rect x="286.401" y="162.374" clip-path="url(#SVGID_10_)" fill="#4566D6" width="0.927" height="2.399"/>
						<rect x="287.328" y="162.374" clip-path="url(#SVGID_10_)" fill="#4466D7" width="0.927" height="2.399"/>
						<rect x="288.255" y="162.374" clip-path="url(#SVGID_10_)" fill="#4466D8" width="0.927" height="2.399"/>
						<rect x="289.182" y="162.374" clip-path="url(#SVGID_10_)" fill="#4366D9" width="0.931" height="2.399"/>
						<rect x="290.113" y="162.374" clip-path="url(#SVGID_10_)" fill="#4266DA" width="0.926" height="2.399"/>
						<path clip-path="url(#SVGID_10_)" fill="#4266DA" d="M291.039,164.772v-2.399V164.772z"/>
					</g>
				</g>
				<g opacity="0.1">
					<rect x="292.775" y="162.374" fill="#E0E0E0" width="11.133" height="2.4"/>
				</g>
				<g opacity="0.1">
					<rect x="280.748" y="166.803" fill="#E0E0E0" width="15.389" height="2.4"/>
				</g>
				<g>
					<rect x="314.243" y="166.803" fill="#E9BE4D" width="8.633" height="2.4"/>
				</g>
				<g opacity="0.2">
					<rect x="305.645" y="162.374" fill="#E0E0E0" width="11.134" height="2.4"/>
				</g>
				<g opacity="0.2">
					<rect x="279.905" y="158.118" fill="#E0E0E0" width="33.401" height="2.398"/>
				</g>
				<g opacity="0.2">
					<rect x="279.905" y="153.519" fill="#E0E0E0" width="16.231" height="2.399"/>
				</g>
				<g>
					<g>
						<defs>
							<rect id="SVGID_11_" x="297.075" y="153.519" width="4.627" height="2.399"/>
						</defs>
						<clipPath id="SVGID_12_">
							<use xlink:href="#SVGID_11_"  overflow="visible"/>
						</clipPath>
						<rect x="297.078" y="153.521" clip-path="url(#SVGID_12_)" fill="#4B66CE" width="0.382" height="2.398"/>
						<rect x="297.459" y="153.521" clip-path="url(#SVGID_12_)" fill="#4A66CF" width="0.386" height="2.398"/>
						<rect x="297.845" y="153.521" clip-path="url(#SVGID_12_)" fill="#4966D0" width="0.386" height="2.398"/>
						<rect x="298.231" y="153.521" clip-path="url(#SVGID_12_)" fill="#4966D1" width="0.386" height="2.398"/>
						<rect x="298.617" y="153.521" clip-path="url(#SVGID_12_)" fill="#4866D2" width="0.386" height="2.398"/>
						<rect x="299.002" y="153.521" clip-path="url(#SVGID_12_)" fill="#4766D3" width="0.386" height="2.398"/>
						<rect x="299.388" y="153.521" clip-path="url(#SVGID_12_)" fill="#4666D5" width="0.386" height="2.398"/>
						<rect x="299.774" y="153.521" clip-path="url(#SVGID_12_)" fill="#4566D6" width="0.386" height="2.398"/>
						<rect x="300.16" y="153.521" clip-path="url(#SVGID_12_)" fill="#4466D7" width="0.386" height="2.398"/>
						<rect x="300.546" y="153.521" clip-path="url(#SVGID_12_)" fill="#4466D8" width="0.386" height="2.398"/>
						<rect x="300.932" y="153.521" clip-path="url(#SVGID_12_)" fill="#4366D9" width="0.386" height="2.398"/>
						<rect x="301.317" y="153.521" clip-path="url(#SVGID_12_)" fill="#4266DA" width="0.386" height="2.398"/>
						<path clip-path="url(#SVGID_12_)" fill="#4266DA" d="M301.703,155.919v-2.398V155.919z"/>
					</g>
				</g>
				<g opacity="0.2">
					<rect x="305.121" y="149.121" fill="#E0E0E0" width="4.627" height="2.399"/>
				</g>
				<g opacity="0.2">
					<rect x="302.814" y="153.519" fill="#E0E0E0" width="17.841" height="2.399"/>
				</g>
			</g>
			<g opacity="0.2">
				<rect x="273.061" y="106.004" width="75.205" height="3.211"/>
			</g>
			<g opacity="0.2">
				<rect x="273.061" y="141.845" width="75.205" height="3.211"/>
			</g>
			<g opacity="0.2">
				<rect x="273.061" y="78.033" width="75.205" height="3.211"/>
			</g>
			<g opacity="0.2">
				<rect x="348.266" y="78.033" width="3.015" height="98.554"/>
			</g>
			<g>
				<g>
					<rect x="351.28" y="78.033" fill="#568FEA" width="106.07" height="96.648"/>
				</g>
				<g>
					<g opacity="0.4">
						<rect x="389.438" y="142.583" fill="#274394" width="7.244" height="7.241"/>
					</g>
					<g>
						<rect x="390.002" y="143.166" fill="#F1EDE5" width="7.242" height="7.241"/>
					</g>
					<g opacity="0.3">
						<rect x="358.733" y="90.467" fill="#274394" width="89.866" height="31.074"/>
					</g>
					<g>
						<rect x="358.282" y="89.212" fill="#F1EDE5" width="89.308" height="31.534"/>
					</g>
					<g>
						<rect x="375.024" y="124.893" fill="#DE5AC8" width="25.702" height="5.359"/>
						<path fill="#DE5AC8" d="M401.289,130.814h-26.827v-6.483h26.827V130.814z M375.587,129.69h24.578v-4.235h-24.578V129.69z"/>
					</g>
					<g>
						<path fill="#DE5AC8" d="M430.012,130.814h-26.464v-6.483h26.464V130.814z M404.671,129.69h24.217v-4.235h-24.217V129.69z"/>
					</g>
					<g>
						<g opacity="0.4">
							<rect x="359.389" y="142.583" fill="#274394" width="7.244" height="7.241"/>
						</g>
						<g>
							<rect x="359.925" y="143.139" fill="#F1EDE5" width="7.245" height="7.243"/>
						</g>
						<g>
							<g>
								<rect x="369.395" y="142.583" fill="#F1EDE5" width="14.226" height="1.13"/>
							</g>
							<g>
								<rect x="369.395" y="144.364" fill="#F1EDE5" width="15.917" height="1.128"/>
							</g>
							<g>
								<rect x="369.395" y="146.146" fill="#F1EDE5" width="12.932" height="1.128"/>
							</g>
							<g>
								<rect x="369.395" y="148.044" fill="#F1EDE5" width="15.051" height="1.128"/>
							</g>
							<g>
								<rect x="369.395" y="149.824" fill="#F1EDE5" width="10.985" height="1.129"/>
							</g>
							<g>
								<rect x="428.818" y="142.583" fill="#F1EDE5" width="14.225" height="1.13"/>
							</g>
							<g>
								<rect x="428.818" y="144.364" fill="#F1EDE5" width="15.916" height="1.128"/>
							</g>
							<g>
								<rect x="428.818" y="146.146" fill="#F1EDE5" width="12.932" height="1.128"/>
							</g>
							<g>
								<rect x="428.818" y="148.044" fill="#F1EDE5" width="15.051" height="1.128"/>
							</g>
							<g>
								<rect x="428.818" y="149.824" fill="#F1EDE5" width="10.985" height="1.129"/>
							</g>
							<g>
								<rect x="399.443" y="142.583" fill="#F1EDE5" width="15.301" height="1.13"/>
							</g>
							<g>
								<rect x="399.443" y="144.364" fill="#F1EDE5" width="14.225" height="1.128"/>
							</g>
							<g>
								<rect x="399.443" y="146.146" fill="#F1EDE5" width="15.917" height="1.128"/>
							</g>
							<g>
								<rect x="399.443" y="148.044" fill="#F1EDE5" width="14.225" height="1.128"/>
							</g>
							<g>
								<rect x="399.443" y="149.824" fill="#F1EDE5" width="15.917" height="1.129"/>
							</g>
						</g>
					</g>
					<g opacity="0.4">
						<rect x="418.717" y="142.583" fill="#274394" width="7.242" height="7.241"/>
					</g>
					<g>
						<rect x="419.308" y="143.196" fill="#F1EDE5" width="7.244" height="7.241"/>
					</g>
				</g>
				<g>
					<rect x="351.28" y="159.318" fill="#274394" width="106.07" height="17.269"/>
				</g>
				<g>
					<polygon fill="#568FEA" points="402.169,161.677 398.836,158.228 402.169,154.776 405.502,158.228 					"/>
				</g>
				<g>
					<rect x="351.28" y="78.033" fill="#F1EDE5" width="106.07" height="4.586"/>
				</g>
				<g>
					<ellipse fill="#DE5AC8" cx="366.792" cy="82.619" rx="2.994" ry="2.934"/>
				</g>
				<g>
					<rect x="407.861" y="81.017" fill="#274394" width="11.608" height="3.206"/>
				</g>
				<g>
					<rect x="420.815" y="81.017" fill="#274394" width="11.608" height="3.206"/>
				</g>
				<g>
					<rect x="433.769" y="81.017" fill="#274394" width="11.611" height="3.206"/>
				</g>
				<g>
					<path fill="#DE5AC8" d="M361.884,145.676v-0.678c0.304-0.015,0.517-0.036,0.638-0.063c0.192-0.044,0.35-0.134,0.473-0.267
						c0.082-0.091,0.146-0.211,0.188-0.363c0.025-0.091,0.038-0.159,0.038-0.203h0.804v5.071h-0.987v-3.498H361.884z"/>
				</g>
				<g>
					<path fill="#DE5AC8" d="M392.162,148.177c0.139-0.338,0.463-0.696,0.974-1.074c0.444-0.329,0.73-0.564,0.86-0.706
						c0.201-0.221,0.302-0.463,0.302-0.728c0-0.214-0.057-0.393-0.172-0.535c-0.115-0.143-0.28-0.214-0.494-0.214
						c-0.292,0-0.491,0.113-0.598,0.339c-0.061,0.131-0.097,0.338-0.108,0.623h-0.936c0.017-0.432,0.092-0.78,0.227-1.046
						c0.258-0.505,0.714-0.758,1.37-0.758c0.518,0,0.932,0.148,1.237,0.446c0.308,0.297,0.46,0.691,0.46,1.18
						c0,0.376-0.108,0.709-0.325,1c-0.142,0.193-0.374,0.409-0.699,0.647l-0.386,0.283c-0.242,0.177-0.407,0.307-0.496,0.385
						c-0.09,0.08-0.165,0.172-0.225,0.277h2.14v0.877h-3.357C391.945,148.81,392.021,148.477,392.162,148.177z"/>
				</g>
				<g>
					<path fill="#DE5AC8" d="M421.989,147.617c0,0.204,0.032,0.371,0.096,0.504c0.117,0.245,0.329,0.367,0.637,0.367
						c0.188,0,0.354-0.067,0.493-0.201c0.142-0.134,0.212-0.327,0.212-0.579c0-0.333-0.131-0.556-0.392-0.668
						c-0.148-0.062-0.381-0.094-0.7-0.094v-0.714c0.312-0.004,0.529-0.036,0.653-0.094c0.214-0.098,0.319-0.296,0.319-0.595
						c0-0.193-0.055-0.351-0.163-0.472c-0.109-0.122-0.263-0.183-0.46-0.183c-0.228,0-0.395,0.076-0.501,0.225
						c-0.106,0.148-0.156,0.348-0.153,0.597h-0.898c0.008-0.251,0.051-0.49,0.125-0.717c0.078-0.198,0.202-0.38,0.371-0.549
						c0.126-0.119,0.275-0.209,0.448-0.273c0.174-0.063,0.386-0.094,0.639-0.094c0.469,0,0.846,0.125,1.133,0.376
						c0.286,0.25,0.43,0.587,0.43,1.008c0,0.299-0.086,0.55-0.257,0.756c-0.108,0.127-0.22,0.216-0.338,0.262
						c0.089,0,0.215,0.079,0.379,0.235c0.245,0.234,0.368,0.556,0.368,0.965c0,0.429-0.145,0.805-0.431,1.131
						c-0.286,0.325-0.711,0.488-1.274,0.488c-0.693,0-1.174-0.234-1.444-0.702c-0.142-0.25-0.221-0.577-0.236-0.98H421.989z"/>
				</g>
			</g>
			<g opacity="0.8">
				<rect x="273.061" y="71.61" fill="#232323" width="184.29" height="6.422"/>
			</g>
		</g>
	</g>
	<g>
		<path fill="#FFFFFF" d="M284.3,77.743c-0.046,0-0.09-0.011-0.132-0.034l-3.317-1.866c-0.085-0.048-0.137-0.138-0.137-0.236
			c0-0.097,0.054-0.187,0.14-0.234l3.317-1.809c0.08-0.043,0.178-0.043,0.257,0l3.316,1.809c0.086,0.047,0.139,0.137,0.14,0.234
			c0,0.098-0.052,0.188-0.137,0.236l-3.316,1.866C284.391,77.732,284.345,77.743,284.3,77.743z M281.537,75.612l2.763,1.555
			l2.763-1.555l-2.763-1.506L281.537,75.612z"/>
	</g>
	<g>
		<rect x="285.174" y="207.703" fill="#FFFFFF" width="152.118" height="2.379"/>
	</g>
	<g>
		<rect x="286.843" y="206.542" fill="#D4D4D4" width="6.035" height="1.189"/>
	</g>
	<g>
		<rect x="294.521" y="206.542" fill="#D4D4D4" width="6.034" height="1.189"/>
	</g>
	<g>
		<rect x="301.968" y="206.542" fill="#D4D4D4" width="6.033" height="1.189"/>
	</g>
	<g>
		<rect x="309.23" y="206.542" fill="#D4D4D4" width="8.962" height="1.189"/>
	</g>
	<g>
		<rect x="319.83" y="206.542" fill="#D4D4D4" width="10.193" height="1.189"/>
	</g>
	<g>
		<rect x="395.191" y="206.542" fill="#D4D4D4" width="6.602" height="1.189"/>
	</g>
	<g>
		<rect x="403.337" y="206.542" fill="#D4D4D4" width="6.602" height="1.189"/>
	</g>
	<g>
		<rect x="411.345" y="206.542" fill="#D4D4D4" width="6.601" height="1.189"/>
	</g>
	<g>
		<rect x="419.299" y="206.542" fill="#D4D4D4" width="6.591" height="1.189"/>
	</g>
	<g>
		<rect x="427.441" y="206.542" fill="#D4D4D4" width="6.59" height="1.189"/>
	</g>
	<g>
		<rect x="332.94" y="206.542" fill="#D4D4D4" width="58.955" height="1.189"/>
	</g>
	<g>
		<path fill="#E8CF98" d="M134.004,296.691c-0.296,0-0.536-0.24-0.536-0.537c0-1.851-1.506-3.356-3.357-3.356
			c-0.297,0-0.537-0.24-0.537-0.537c0-0.297,0.24-0.537,0.537-0.537c2.442,0,4.43,1.987,4.43,4.43
			C134.542,296.451,134.302,296.691,134.004,296.691z"/>
	</g>
	<g>
		<path fill="#E8CF98" d="M571.271,254.633c-0.296,0-0.536-0.24-0.536-0.537c0-2.442,1.987-4.429,4.429-4.429
			c0.296,0,0.536,0.24,0.536,0.537c0,0.297-0.24,0.537-0.536,0.537c-1.849,0-3.354,1.505-3.354,3.355
			C571.81,254.393,571.568,254.633,571.271,254.633z"/>
	</g>
	<g>
		<path fill="#E8CF98" d="M571.224,296.691c-0.296,0-0.536-0.24-0.536-0.537c0-2.442,1.987-4.43,4.431-4.43
			c0.296,0,0.536,0.24,0.536,0.537c0,0.296-0.24,0.537-0.536,0.537c-1.852,0-3.357,1.505-3.357,3.356
			C571.761,296.451,571.521,296.691,571.224,296.691z"/>
	</g>
	<g>
		<rect x="209.685" y="231.975" fill="#313131" width="290.826" height="116.017"/>
	</g>
	<g>
		<g>
			<path fill="#33571C" d="M573.825,92.233c-0.129-1.687-0.341-3.102-0.662-4.326c-0.258-1.234-0.582-1.979-0.794-2.541
				c-0.213-0.553-0.328-0.847-0.328-0.847c-0.148-0.384-0.488-0.692-0.922-0.781c-0.678-0.141-1.345,0.298-1.482,0.979
				c0,0-0.064,0.308-0.182,0.889c-0.129,0.569-0.239,1.484-0.581,2.375c-0.279,0.896-0.722,2.058-1.265,3.294
				c-0.573,1.238-1.315,2.563-2.216,3.958c-0.857,1.396-1.978,2.844-3.184,4.33c-1.261,1.484-2.583,3.046-4.087,4.64
				c-2.803,3.05-5.93,6.376-9.058,10.119c0.307-1.55,0.607-3.132,0.907-4.757c0.55-2.938,1.186-5.938,1.898-8.949
				c0.717-3.006,1.429-6.041,2.059-9.067c0.661-3.014,1.154-6.046,1.552-8.987c0.403-2.94,0.664-5.821,0.763-8.555
				c0.072-2.74,0.03-5.328-0.161-7.707c-0.179-2.378-0.479-4.542-0.827-6.436c-0.195-0.945-0.375-1.827-0.539-2.642
				c-0.225-0.81-0.433-1.55-0.616-2.221c-0.351-1.346-0.773-2.298-0.988-2.995c-0.239-0.684-0.367-1.047-0.367-1.047
				c-0.083-0.248-0.333-0.406-0.602-0.369c-0.304,0.039-0.521,0.32-0.478,0.625c0,0,0.052,0.385,0.15,1.101
				c0.069,0.711,0.297,1.781,0.361,3.096c0.106,1.308,0.207,2.893,0.226,4.732c0.019,1.832-0.055,3.892-0.276,6.123
				c-0.206,2.229-0.587,4.628-1.093,7.138c-0.553,2.506-1.134,5.135-1.941,7.827c-1.59,5.384-3.575,11.062-5.725,16.81
				c-1.066,2.871-2.241,5.741-3.384,8.611c-1.162,2.858-2.188,5.771-2.938,8.689c-0.551,2.148-0.907,4.323-1.129,6.451
				c-1.447-1.683-2.728-3.295-3.694-4.843c-0.771-1.188-1.406-2.322-1.895-3.384c-0.466-1.056-0.844-2.047-1.082-2.816
				c-0.294-0.759-0.389-1.542-0.496-2.03c-0.102-0.495-0.155-0.758-0.155-0.758c-0.074-0.345-0.315-0.653-0.667-0.79
				c-0.555-0.214-1.179,0.062-1.393,0.618c0,0-0.097,0.251-0.279,0.724c-0.18,0.483-0.455,1.118-0.678,2.175
				c-0.276,1.044-0.455,2.255-0.565,3.697c-0.082,1.429-0.123,3.096,0.092,4.852c0.367,3.553,1.405,7.56,2.796,11.525
				c1.386,3.964,3.122,7.882,4.579,11.561c0.719,1.839,1.201,3.75,1.479,5.543c0.307,1.802,0.529,3.438,0.965,4.79
				c0.477,1.369,1.076,2.504,1.789,3.604c0.306,0.549,0.756,1.086,1.037,1.625c0.398,0.534,0.712,1.074,1.074,1.611
				c0.364,0.541,0.726,1.085,1.05,1.629c0.185,0.283,0.365,0.555,0.541,0.821c0.147,0.273,0.309,0.544,0.48,0.817
				c0.663,1.082,1.277,2.156,1.824,3.105c0.532,0.949,0.945,1.765,1.294,2.352c0.358,0.604,0.547,0.926,0.547,0.926l0.015,0.023
				c0.389,0.659,1.22,0.946,1.942,0.635c0,0,0.364-0.155,0.971-0.503c0.32-0.169,0.673-0.397,1.079-0.675
				c0.402-0.287,0.936-0.599,1.353-1.025c0.909-0.828,2.069-1.893,2.982-3.33c0.527-0.705,0.964-1.497,1.386-2.365
				c0.418-0.87,0.836-1.816,1.114-2.831c0.687-2.033,0.978-4.324,1.005-6.729c-0.006-1.515-0.183-3.074-0.528-4.592
				c0.188-0.28,0.373-0.564,0.565-0.857c0.38-0.638,0.802-1.274,1.228-1.904c0.219-0.316,0.423-0.628,0.602-0.942
				c0.215-0.309,0.435-0.623,0.656-0.943c0.362-0.625,0.845-1.261,1.207-1.9c0.838-1.287,1.542-2.615,2.095-4.217
				c0.512-1.581,0.771-3.495,1.131-5.598c0.324-2.1,0.892-4.335,1.732-6.487c0.823-2.155,1.812-4.369,2.709-6.636
				c0.938-2.239,1.817-4.588,2.645-6.884c1.628-4.64,2.84-9.327,3.268-13.48C573.973,95.852,573.923,93.904,573.825,92.233z"/>
		</g>
		<g>
			<path fill="none" stroke="#75CC34" stroke-width="2.8133" stroke-linecap="round" stroke-miterlimit="10" d="M541.45,161.132"/>
		</g>
		<g>
			<path fill="none" stroke="#75CC34" stroke-width="5.3046" stroke-linecap="round" stroke-miterlimit="10" d="M545.14,99.209"/>
		</g>
		<g>
			<path fill="#E9BE4D" d="M572.264,171.908c0,0.98-0.812,1.776-1.82,1.776h-47.761c-1.005,0-1.821-0.796-1.821-1.776V158.14
				c0-0.981,0.816-1.776,1.821-1.776h47.761c1.008,0,1.82,0.794,1.82,1.776V171.908z"/>
		</g>
		<g>
			<path fill="#E9BE4D" d="M524.411,171.194c-0.368-1.54,0.627-2.802,2.213-2.802h39.777c1.585,0,2.638,1.273,2.341,2.831
				l-7.11,37.296c-0.298,1.558-1.838,2.831-3.421,2.831h-22.786c-1.588,0-3.182-1.26-3.553-2.801L524.411,171.194z"/>
		</g>
		<g>
			<path fill="#3C681E" d="M570.838,91.866c-2.674,6.375-5.162,11.201-7.46,14.946c1.22,0.4,2.621,0.166,2.621,0.166
				c-0.614,1.115-2.233,1.634-3.919,1.866c-1.605,2.417-3.111,4.296-4.504,5.784c1.388,1.617,4.49,1.108,4.49,1.108
				c-1.211,2.195-5.742,2.439-8.378,2.383c-1.39,1.028-2.618,1.739-3.667,2.377c0.08,0.221,0.126,0.533,0.12,0.975
				c-0.073,5.506,7.065,4.312,7.065,4.312c-1.68,3.049-8.024,3.349-11.615,3.262c-0.005,0.282-0.018,0.556-0.018,0.86
				c0,9.66,14.092,6.219,14.092,6.219C558.438,123.803,570.838,118.194,570.838,91.866z"/>
		</g>
		<g>
			<path fill="#3C681E" d="M554.251,65.845c-0.171,5.55-2.219,12.858-4.745,20.397c0.936,0.363,2.088-0.558,2.088-0.558
				c0.013,1.187-1.813,2.33-2.887,2.904c-0.344,0.998-0.693,1.998-1.049,2.996c0.938,0.383,2.11-0.549,2.11-0.549
				c0.012,1.212-1.899,2.384-2.961,2.944c-0.305,0.854-0.608,1.702-0.912,2.546c0.927,0.316,2.046-0.58,2.046-0.58
				c0.014,1.183-1.808,2.322-2.879,2.896c-1.333,3.724-2.587,7.286-3.583,10.493c1.192,0.808,2.883-0.542,2.883-0.542
				c0.017,1.556-2.532,3.072-3.815,3.732c-0.548,2.023-0.942,3.85-1.122,5.403c1.682,1.223,3.137-1.229,3.137-1.229
				c0.614,1.594-1.685,4.214-2.526,5.102c0.836,1.439,2.201,2.375,2.993,2.059c3.261-1.303,0.924-5.769,7.234-27.74
				C556.571,74.15,554.251,65.845,554.251,65.845z"/>
		</g>
		<g>
			<path fill="#3C681E" d="M537.785,130.184c-6.315-5.581-10.395-18.881-10.395-18.881s-0.098,10.018,2.869,18.671
				c0.543-0.592,0.654-1.588,0.654-1.588c0.746,0.742,0.461,2.458,0.133,3.679c0.714,1.705,1.57,3.309,2.591,4.726
				c1.784-0.586,1.432-3.379,1.432-3.379c1.642,0.996,1.526,4.715,1.384,6.39c0.925,0.738,1.946,1.335,3.07,1.765
				c3.146-0.906,1.298-4.843,1.298-4.843c1.851,0.436,3.029,3.42,3.65,5.574C550.197,141.711,542.733,134.56,537.785,130.184z"/>
		</g>
		<g opacity="0.8">
			<g opacity="0.2">
				<polygon fill="#FFFFFF" points="528.096,171.062 546.031,171.062 546.031,159.738 546.031,159.008 523.524,159.008 
					523.524,171.062 526.651,171.062 				"/>
			</g>
			<g opacity="0.2">
				<polygon fill="#FFFFFF" points="528.666,173.829 535.657,207.81 546.031,207.81 546.031,173.829 				"/>
			</g>
		</g>
	</g>
	<g>
		
			<rect x="134.885" y="11.256" transform="matrix(0.7072 0.707 -0.707 0.7072 83.2993 -78.6184)" fill="#E9BE4D" width="3.358" height="100.001"/>
	</g>
	<g>
		
			<rect x="139.189" y="14.546" transform="matrix(0.7069 0.7073 -0.7073 0.7069 86.9453 -80.7197)" fill="#E9BE4D" width="3.358" height="100.001"/>
	</g>
	<g>
		<g>
			
				<rect x="110.514" y="94.605" transform="matrix(0.9775 -0.2107 0.2107 0.9775 -27.9523 26.8882)" fill="#E9BE4D" width="3.358" height="100.002"/>
		</g>
		<g>
			
				<rect x="115.612" y="92.772" transform="matrix(0.9776 -0.2106 0.2106 0.9776 -27.4411 27.9082)" fill="#E9BE4D" width="3.359" height="100.002"/>
		</g>
	</g>
	<g>
		<circle fill="#E9BE4D" cx="104.76" cy="98.103" r="11.277"/>
	</g>
	<g>
		<circle fill="#DCAF49" cx="105.745" cy="98.103" r="11.276"/>
	</g>
	<g>
		<circle fill="#871010" cx="105.744" cy="98.103" r="4.561"/>
	</g>
	<g>
		<path fill="#E9BE4D" d="M165.011,205.352c0,3.933-2.197,7.121-4.908,7.121H89.855c-2.711,0-4.908-3.188-4.908-7.121l0,0
			c0-3.933,2.197-7.121,4.908-7.121h70.248C162.814,198.231,165.011,201.419,165.011,205.352L165.011,205.352z"/>
	</g>
	<g>
		<path fill="#E9BE4D" d="M124.798,179.268c-10.473,0-18.963,8.491-18.963,18.963h37.926
			C143.761,187.759,135.271,179.268,124.798,179.268z"/>
	</g>
	<g>
		<path fill="#F1EDE5" d="M181.907,179.54v24.616c0,5.157,4.179,8.317,9.335,8.317h9.333c5.156,0,9.337-3.16,9.337-8.317V179.54
			H181.907z"/>
	</g>
	<g>
		<path fill="#F1EDE5" d="M211.277,184.18c-5.761,0-10.43,4.668-10.43,10.429c0,5.76,4.669,10.429,10.43,10.429
			c5.76,0,10.428-4.669,10.428-10.429C221.706,188.848,217.037,184.18,211.277,184.18z M211.277,201.576
			c-3.849,0-6.966-3.119-6.966-6.967s3.118-6.967,6.966-6.967c3.848,0,6.966,3.12,6.966,6.967S215.125,201.576,211.277,201.576z"/>
	</g>
	<g>
		<path fill="#FFFFFF" d="M195.909,182.123c0,0,0,22.232,0,25.658c5.326,0.019,10.236,0.843,10.651-3.873
			c0.351-3.984,0-21.785,0-21.785H195.909z"/>
	</g>
	<g>
		<path fill="#F3D486" d="M125.655,181.955c0,0,15.405,3.106,15.405,16.151h-14.098l-1.097-14.91"/>
	</g>
	<g>
		<path fill="#F3D486" d="M155.719,199.86h4.562c0,0,5.457,3.578,0,9.035h-4.562C155.719,208.895,159.342,203.483,155.719,199.86z"
			/>
	</g>
	<g opacity="0.15">
		<polygon fill="#FFFFFF" points="192.188,60.788 252.276,210.285 517.073,210.285 220.242,34.171 		"/>
	</g>
	<g>
		<g opacity="0.3">
			<circle fill="#FFFFFF" cx="208.044" cy="50.494" r="11.928"/>
		</g>
		<g>
			<path fill="#E9BE4D" d="M168.622,12.387c0.436,0.401,0.531,1.009,0.211,1.354l-1.956,2.115c-0.318,0.346-0.931,0.3-1.366-0.103
				l-3.034-1.661c-0.437-0.401-0.529-1.006-0.21-1.353l3.083-3.337c0.321-0.345,0.933-0.299,1.368,0.104L168.622,12.387z"/>
		</g>
		<g>
			<path fill="#E9BE4D" d="M190.654,20.913c0.588,0.544,0.714,1.361,0.28,1.829l-13.288,14.374
				c-0.432,0.466-1.254,0.404-1.842-0.135l-15.208-14.062c-0.588-0.542-0.713-1.359-0.281-1.827l13.287-14.375
				c0.433-0.465,1.255-0.403,1.841,0.138L190.654,20.913z"/>
		</g>
		<g opacity="0.2">
			<polygon fill="#FFFFFF" points="175.451,9.48 189.402,23.147 182.968,30.109 166.305,18.826 			"/>
		</g>
		<g>
			<path fill="#E9BE4D" d="M227.975,33.153c1.216,0.682,1.437,2.077,0.491,3.101L195.28,72.156c-0.945,1.019-2.396,0.94-3.223-0.178
				l-19.823-26.837c-0.828-1.12-0.731-2.873,0.213-3.896l22.193-24.006c0.943-1.022,2.711-1.302,3.925-0.62L227.975,33.153z"/>
		</g>
		<g opacity="0.2">
			<polygon fill="#FFFFFF" points="199.203,20.507 224.612,34.89 207.916,52.256 187.943,31.646 			"/>
		</g>
	</g>
	<g>
		<path fill="#D4D4D4" d="M478.062,207.703c0,1.837-1.659,3.326-3.705,3.326h-13.302c-2.044,0-3.704-1.489-3.704-3.326l0,0
			c0-1.837,1.66-3.325,3.704-3.325h13.302C476.402,204.378,478.062,205.866,478.062,207.703L478.062,207.703z"/>
	</g>
	<g>
		<path fill="#FFFFFF" d="M478.062,207.703c0-1.837-1.659-3.325-3.705-3.325h-13.302c-2.044,0-3.704,1.488-3.704,3.325H478.062z"/>
	</g>
	<g opacity="0.15">
		<g>
			<path fill="#FFFFFF" d="M199.808,167.994c0,0-0.072-0.146-0.182-0.414c-0.109-0.258-0.252-0.703-0.498-1.112
				c-0.213-0.411-0.521-0.896-0.866-1.394c-0.375-0.493-0.784-0.992-1.295-1.48c-0.471-0.497-1.08-0.982-1.681-1.495
				c-0.655-0.509-1.347-1.046-2.062-1.602c-0.744-0.559-1.521-1.158-2.344-1.792c-0.807-0.639-1.65-1.322-2.484-2.057
				c-1.66-1.471-3.335-3.16-4.655-5.116c-0.664-0.974-1.242-1.995-1.674-3.056c-0.448-1.041-0.713-2.137-0.865-3.13
				c-0.036-0.518-0.09-0.995-0.079-1.456c0.036-0.47,0.041-0.896,0.115-1.298c0.087-0.402,0.157-0.765,0.253-1.094
				c0.115-0.33,0.228-0.622,0.341-0.879c0.192-0.517,0.504-0.88,0.642-1.127c0.163-0.243,0.264-0.364,0.264-0.364
				s0.064,0.146,0.183,0.419c0.116,0.268,0.245,0.65,0.484,1.099c0.107,0.215,0.225,0.453,0.354,0.713
				c0.144,0.237,0.298,0.492,0.465,0.767c0.343,0.522,0.75,1.055,1.204,1.582c0.489,0.524,0.982,1.052,1.59,1.583
				c0.571,0.54,1.242,1.08,1.929,1.66c1.407,1.137,2.994,2.408,4.629,3.843c1.623,1.438,3.266,3.067,4.642,4.923
				c0.694,0.906,1.293,1.922,1.793,2.912c0.475,1.035,0.862,2.044,1.046,3.065c0.208,0.998,0.223,1.957,0.146,2.769
				c-0.105,0.817-0.277,1.497-0.514,2.048c-0.189,0.554-0.476,0.857-0.619,1.115C199.909,167.866,199.808,167.994,199.808,167.994z"
				/>
		</g>
		<g>
			<path fill="#FFFFFF" d="M202.08,154.792c0,0-0.126-0.461-0.306-1.212c-0.117-0.357-0.244-0.748-0.44-1.187
				c-0.083-0.217-0.188-0.436-0.316-0.653c-0.107-0.22-0.244-0.435-0.394-0.646c-0.281-0.427-0.642-0.826-1.042-1.219
				c-0.395-0.396-0.885-0.775-1.389-1.179c-0.533-0.392-1.11-0.795-1.723-1.227c-0.645-0.445-1.298-0.896-1.952-1.348
				c-1.333-0.971-2.743-2.065-3.923-3.443c-0.59-0.678-1.114-1.43-1.508-2.231c-0.408-0.783-0.647-1.636-0.765-2.405
				c-0.091-0.786-0.056-1.498,0.074-2.091c0.113-0.598,0.332-1.073,0.509-1.444c0.159-0.375,0.394-0.632,0.501-0.812
				c0.126-0.178,0.202-0.265,0.202-0.265c0,0,0.123,0.474,0.329,1.184c0.214,0.713,0.619,1.627,1.233,2.417
				c0.638,0.795,1.48,1.51,2.596,2.281c0.54,0.391,1.163,0.778,1.793,1.212c0.639,0.417,1.313,0.885,1.999,1.363
				c0.675,0.501,1.38,1.028,2.04,1.62c0.673,0.589,1.314,1.249,1.885,1.961c0.568,0.731,1.066,1.507,1.417,2.337
				c0.348,0.824,0.562,1.667,0.61,2.447c0.059,0.776-0.018,1.478-0.174,2.057c-0.124,0.579-0.374,1.068-0.545,1.438
				c-0.174,0.362-0.396,0.593-0.507,0.776C202.15,154.699,202.08,154.792,202.08,154.792z"/>
		</g>
		<g>
			<path fill="#FFFFFF" d="M186.292,158.897c0,0,0.088,0.321,0.211,0.841c0.081,0.248,0.172,0.518,0.299,0.824
				c0.12,0.302,0.299,0.608,0.5,0.899c0.394,0.593,0.971,1.109,1.686,1.663c0.73,0.55,1.613,1.126,2.549,1.788
				c0.925,0.674,1.902,1.433,2.722,2.387c0.409,0.471,0.771,0.993,1.046,1.548c0.283,0.543,0.449,1.135,0.531,1.668
				c0.067,0.545,0.032,1.04-0.058,1.451c-0.07,0.415-0.224,0.744-0.347,1.002c-0.11,0.26-0.272,0.438-0.348,0.562
				c-0.091,0.12-0.141,0.185-0.141,0.185s-0.084-0.33-0.227-0.822c-0.146-0.495-0.421-1.129-0.855-1.677
				c-0.443-0.551-1.027-1.046-1.801-1.582c-0.403-0.273-0.82-0.555-1.243-0.84c-0.445-0.29-0.912-0.615-1.388-0.947
				c-0.944-0.683-1.926-1.487-2.724-2.484c-0.392-0.507-0.738-1.045-0.981-1.621c-0.243-0.572-0.391-1.158-0.423-1.697
				c-0.045-0.538,0.02-1.027,0.127-1.429c0.076-0.399,0.252-0.74,0.371-0.996c0.121-0.252,0.275-0.412,0.353-0.539
				C186.243,158.961,186.292,158.897,186.292,158.897z"/>
		</g>
	</g>
	<g>
		<rect x="370.636" y="107.375" fill="#274394" width="60.178" height="3.723"/>
	</g>
	<g>
		<rect x="379.554" y="113.761" fill="#274394" width="39.745" height="1.86"/>
	</g>
	<g>
		<g>
			<polygon fill="#AAAAB2" points="619.91,153.554 596.441,153.554 598.092,138.955 618.526,138.955 			"/>
		</g>
		<g>
			<rect x="596.441" y="153.554" fill="#871010" width="23.469" height="53.751"/>
		</g>
		<g>
			<rect x="596.441" y="197.48" fill="#AAAAB2" width="23.469" height="13.422"/>
		</g>
		<g>
			<path fill="#333333" d="M619.785,139.148c0,0.78-0.632,1.411-1.409,1.411h-20.399c-0.778,0-1.411-0.631-1.411-1.411v-3.409
				c0-0.779,0.633-1.41,1.411-1.41h20.399c0.777,0,1.409,0.631,1.409,1.41V139.148z"/>
		</g>
		<g>
			<path fill="#7B0000" d="M620.575,196.319c0,0.555-0.449,1.003-1.002,1.003h-22.662c-0.553,0-1.005-0.449-1.005-1.003l0,0
				c0-0.554,0.452-1.005,1.005-1.005h22.662C620.126,195.313,620.575,195.765,620.575,196.319L620.575,196.319z"/>
		</g>
		<g>
			<path fill="#931D1D" d="M620.575,195.772c0,0.554-0.449,1.005-1.002,1.005h-22.662c-0.553,0-1.005-0.451-1.005-1.005l0,0
				c0-0.554,0.452-1.004,1.005-1.004h22.662C620.126,194.768,620.575,195.218,620.575,195.772L620.575,195.772z"/>
		</g>
		<g>
			<path fill="#8C8C98" d="M619.973,145.713c0.005,0.182-0.14,0.332-0.319,0.336l-22.681,0.538c-0.181,0.004-0.332-0.139-0.336-0.32
				l0,0c-0.005-0.181,0.138-0.331,0.32-0.335l22.681-0.538C619.817,145.39,619.97,145.534,619.973,145.713L619.973,145.713z"/>
		</g>
		<g>
			<path fill="#8C8C98" d="M619.925,146.901c0.005,0.181-0.14,0.331-0.32,0.336l-22.681,0.539c-0.18,0.004-0.332-0.14-0.338-0.321
				l0,0c-0.002-0.183,0.141-0.331,0.321-0.335l22.683-0.538C619.77,146.579,619.919,146.72,619.925,146.901L619.925,146.901z"/>
		</g>
		<g>
			<path fill="#8C8C98" d="M619.913,148.049c0.004,0.181-0.142,0.331-0.321,0.335l-22.684,0.536c-0.18,0.006-0.33-0.137-0.332-0.318
				l0,0c-0.005-0.181,0.139-0.332,0.318-0.336l22.682-0.537C619.758,147.724,619.908,147.868,619.913,148.049L619.913,148.049z"/>
		</g>
		<g>
			<path fill="#A3A3AF" d="M619.973,145.57c0.005,0.182-0.14,0.331-0.319,0.335l-22.681,0.538c-0.181,0.004-0.332-0.139-0.336-0.32
				l0,0c-0.005-0.18,0.138-0.331,0.32-0.335l22.681-0.537C619.817,145.246,619.97,145.39,619.973,145.57L619.973,145.57z"/>
		</g>
		<g>
			<path fill="#A3A3AF" d="M619.925,146.758c0.005,0.181-0.14,0.332-0.32,0.335l-22.681,0.538c-0.18,0.004-0.332-0.139-0.338-0.32
				l0,0c-0.002-0.181,0.141-0.33,0.321-0.335l22.683-0.538C619.77,146.434,619.919,146.578,619.925,146.758L619.925,146.758z"/>
		</g>
		<g>
			<path fill="#A3A3AF" d="M619.913,147.906c0.004,0.18-0.142,0.331-0.321,0.335l-22.684,0.537c-0.18,0.005-0.33-0.138-0.332-0.319
				l0,0c-0.005-0.182,0.139-0.333,0.318-0.335l22.682-0.539C619.758,147.581,619.908,147.724,619.913,147.906L619.913,147.906z"/>
		</g>
		<g>
			<path fill="#8C8C98" d="M620.233,197.605c0,0.181-0.151,0.326-0.338,0.327l-23.443,0.019c-0.189,0-0.34-0.145-0.34-0.327l0,0
				c0-0.18,0.15-0.327,0.34-0.327l23.443-0.021C620.082,197.276,620.233,197.423,620.233,197.605L620.233,197.605z"/>
		</g>
		<g>
			<path fill="#A3A3AF" d="M620.233,197.471c0,0.181-0.151,0.327-0.338,0.327l-23.443,0.019c-0.189,0.001-0.34-0.145-0.34-0.327l0,0
				c0-0.18,0.15-0.327,0.34-0.327l23.443-0.019C620.082,197.142,620.233,197.289,620.233,197.471L620.233,197.471z"/>
		</g>
		<g>
			<path fill="#8C8C98" d="M620.233,152.54c0,0.181-0.151,0.327-0.338,0.328l-23.443,0.02c-0.189,0-0.34-0.147-0.34-0.327l0,0
				c0-0.183,0.15-0.33,0.34-0.33l23.443-0.019C620.082,152.211,620.233,152.357,620.233,152.54L620.233,152.54z"/>
		</g>
		<g>
			<path fill="#A3A3AF" d="M620.233,152.346c0,0.182-0.151,0.327-0.338,0.328l-23.443,0.02c-0.189,0-0.34-0.146-0.34-0.328l0,0
				c0-0.18,0.15-0.327,0.34-0.327l23.443-0.021C620.082,152.018,620.233,152.165,620.233,152.346L620.233,152.346z"/>
		</g>
		<g>
			<g>
				<path fill="#3D3D3D" d="M598.548,139.282c0,0.321-0.261,0.583-0.582,0.583l0,0c-0.323,0-0.583-0.261-0.583-0.583v-3.621
					c0-0.321,0.26-0.583,0.583-0.583l0,0c0.321,0,0.582,0.262,0.582,0.583V139.282z"/>
			</g>
			<g>
				<path fill="#3D3D3D" d="M600.587,139.282c0,0.321-0.26,0.583-0.581,0.583l0,0c-0.322,0-0.582-0.261-0.582-0.583v-3.621
					c0-0.321,0.26-0.583,0.582-0.583l0,0c0.321,0,0.581,0.262,0.581,0.583V139.282z"/>
			</g>
			<g>
				<path fill="#3D3D3D" d="M602.625,139.282c0,0.321-0.26,0.583-0.581,0.583l0,0c-0.322,0-0.582-0.261-0.582-0.583v-3.621
					c0-0.321,0.26-0.583,0.582-0.583l0,0c0.321,0,0.581,0.262,0.581,0.583V139.282z"/>
			</g>
			<g>
				<path fill="#3D3D3D" d="M604.665,139.282c0,0.321-0.261,0.583-0.583,0.583l0,0c-0.32,0-0.583-0.261-0.583-0.583v-3.621
					c0-0.321,0.263-0.583,0.583-0.583l0,0c0.322,0,0.583,0.262,0.583,0.583V139.282z"/>
			</g>
			<g>
				<path fill="#3D3D3D" d="M606.705,139.282c0,0.321-0.262,0.583-0.583,0.583l0,0c-0.322,0-0.582-0.261-0.582-0.583v-3.621
					c0-0.321,0.26-0.583,0.582-0.583l0,0c0.321,0,0.583,0.262,0.583,0.583V139.282z"/>
			</g>
			<g>
				<path fill="#3D3D3D" d="M608.744,139.282c0,0.321-0.261,0.583-0.584,0.583l0,0c-0.322,0-0.583-0.261-0.583-0.583v-3.621
					c0-0.321,0.261-0.583,0.583-0.583l0,0c0.323,0,0.584,0.262,0.584,0.583V139.282z"/>
			</g>
			<g>
				<path fill="#3D3D3D" d="M610.781,139.282c0,0.321-0.261,0.583-0.583,0.583l0,0c-0.32,0-0.581-0.261-0.581-0.583v-3.621
					c0-0.321,0.261-0.583,0.581-0.583l0,0c0.322,0,0.583,0.262,0.583,0.583V139.282z"/>
			</g>
			<g>
				<path fill="#3D3D3D" d="M612.819,139.282c0,0.321-0.26,0.583-0.581,0.583l0,0c-0.322,0-0.582-0.261-0.582-0.583v-3.621
					c0-0.321,0.26-0.583,0.582-0.583l0,0c0.321,0,0.581,0.262,0.581,0.583V139.282z"/>
			</g>
			<g>
				<path fill="#3D3D3D" d="M614.86,139.282c0,0.321-0.263,0.583-0.584,0.583l0,0c-0.321,0-0.583-0.261-0.583-0.583v-3.621
					c0-0.321,0.262-0.583,0.583-0.583l0,0c0.321,0,0.584,0.262,0.584,0.583V139.282z"/>
			</g>
			<g>
				<path fill="#3D3D3D" d="M616.897,139.282c0,0.321-0.26,0.583-0.582,0.583l0,0c-0.321,0-0.581-0.261-0.581-0.583v-3.621
					c0-0.321,0.26-0.583,0.581-0.583l0,0c0.322,0,0.582,0.262,0.582,0.583V139.282z"/>
			</g>
			<g>
				<path fill="#3D3D3D" d="M618.938,139.282c0,0.321-0.262,0.583-0.583,0.583l0,0c-0.322,0-0.582-0.261-0.582-0.583v-3.621
					c0-0.321,0.26-0.583,0.582-0.583l0,0c0.321,0,0.583,0.262,0.583,0.583V139.282z"/>
			</g>
		</g>
		<g>
			<path fill="#931D1D" d="M620.575,153.863c0,0.554-0.449,1.003-1.002,1.003h-22.662c-0.553,0-1.005-0.45-1.005-1.003l0,0
				c0-0.554,0.452-1.004,1.005-1.004h22.662C620.126,152.858,620.575,153.309,620.575,153.863L620.575,153.863z"/>
		</g>
		<g>
			<path fill="#7D1010" d="M620.575,154.163c0,0.553-0.449,1.004-1.002,1.004h-22.662c-0.553,0-1.005-0.451-1.005-1.004l0,0
				c0-0.554,0.452-1.003,1.005-1.003h22.662C620.126,153.16,620.575,153.609,620.575,154.163L620.575,154.163z"/>
		</g>
		<g opacity="0.1">
			<polygon fill="#FFFFFF" points="605.738,141.609 600.496,141.609 598.457,151.137 599.04,207.81 605.738,207.81 			"/>
		</g>
	</g>
	<g>
		<path fill="#333333" d="M657.17,224.64c0,1.394-1.142,2.532-2.533,2.532H54.626c-1.393,0-2.533-1.139-2.533-2.532v-12.026
			c0-1.392,1.14-2.532,2.533-2.532h305.551c1.393,0,3.671,0,5.063,0h289.396c1.392,0,2.533,1.14,2.533,2.532V224.64z"/>
	</g>
</g>
</svg>
